# Blender v2.91.0 OBJ File: 'chair.blend'
# www.blender.org
mtllib background.mtl
o Plane.002_Plane.003
v -1.280636 0.000000 1.000000
v 1.280636 0.000000 1.000000
v -1.280636 1.728845 -1.000000
v 1.280636 1.728845 -1.000000
v -1.280636 0.000000 -0.740000
v -1.280636 0.260000 -1.000000
v -1.280636 0.004996 -0.790724
v -1.280636 0.019791 -0.839498
v -1.280636 0.043818 -0.884448
v -1.280636 0.076152 -0.923848
v -1.280636 0.115552 -0.956182
v -1.280636 0.160502 -0.980209
v -1.280636 0.209277 -0.995004
v 1.280636 0.260000 -1.000000
v 1.280636 0.000000 -0.740000
v 1.280636 0.209277 -0.995004
v 1.280636 0.160502 -0.980209
v 1.280636 0.115552 -0.956182
v 1.280636 0.076152 -0.923848
v 1.280636 0.043818 -0.884448
v 1.280636 0.019791 -0.839498
v 1.280636 0.004996 -0.790724
vt 0.000000 1.000000
vt 1.000000 1.000000
vt 1.000000 1.000000
vt 0.000000 1.000000
vt 0.000000 1.000000
vt 1.000000 1.000000
vt 0.000000 1.000000
vt 1.000000 1.000000
vt 0.000000 1.000000
vt 1.000000 1.000000
vt 0.000000 1.000000
vt 1.000000 1.000000
vt 0.000000 0.942224
vt 1.000000 0.942224
vt 0.000000 0.919749
vt 1.000000 0.919749
vt 0.000000 0.895362
vt 1.000000 0.895362
vt 0.000000 0.870000
vt 1.000000 0.870000
vt 0.000000 0.000000
vt 1.000000 0.000000
vn 0.0000 0.0000 1.0000
vn 0.0000 0.0980 0.9952
vn 0.0000 0.2903 0.9569
vn 0.0000 0.4714 0.8819
vn 0.0000 0.6344 0.7730
vn 0.0000 0.7730 0.6344
vn 0.0000 0.8819 0.4714
vn 0.0000 0.9569 0.2903
vn 0.0000 0.9952 0.0980
vn 0.0000 1.0000 0.0000
usemtl Material.004
s off
f 6/1/1 14/2/1 4/3/1 3/4/1
f 14/2/2 6/1/2 13/5/2 16/6/2
f 16/6/3 13/5/3 12/7/3 17/8/3
f 17/8/4 12/7/4 11/9/4 18/10/4
f 18/10/5 11/9/5 10/11/5 19/12/5
f 19/12/6 10/11/6 9/13/6 20/14/6
f 20/14/7 9/13/7 8/15/7 21/16/7
f 21/16/8 8/15/8 7/17/8 22/18/8
f 22/18/9 7/17/9 5/19/9 15/20/9
f 1/21/10 2/22/10 15/20/10 5/19/10
